<svg xmlns="http://www.w3.org/2000/svg" viewBox="0 0 171.88 92"><defs><style>.cls-1{fill:#1d1d1b;}.cls-2{fill:none;}.cls-3{fill:#fff;}</style></defs><title>ic_double_cjack_white</title><g id="Layer_2" data-name="Layer 2"><g id="Layer_1-2" data-name="Layer 1"><path class="cls-1" d="M171.84,16.74v2.43A17.91,17.91,0,0,0,171.84,16.74Z"/><path class="cls-2" d="M111.12,30c-.13.15-.27.31-.41.45L95.79,45.4l2.74,2.73,42.9-42.9a17.82,17.82,0,0,1,30.41,11.51V0H98.08a17.84,17.84,0,0,1,13,30Z"/><path class="cls-2" d="M30.48,36.06,42.55,48.13,85.46,5.23A17.69,17.69,0,0,1,98.08,0H0V48.68A17.69,17.69,0,0,1,5.23,36.06,17.88,17.88,0,0,1,30.48,36.06Z"/><path class="cls-2" d="M167.09,30a5.74,5.74,0,0,1-.41.45L111.15,86A17.85,17.85,0,0,1,85.9,86l0,0L70.54,70.65,55.18,86h0a17.85,17.85,0,0,1-25.25,0l0,0L5.23,61.31,5,61.1A17.71,17.71,0,0,1,0,48.68V92H171.84V19.17A17.76,17.76,0,0,1,167.09,30Z"/><path class="cls-3" d="M5.23,61.31,29.9,86l0,0a17.85,17.85,0,0,0,25.25,0h0L70.54,70.65,85.87,86l0,0a17.85,17.85,0,0,0,25.25,0l55.53-55.53a5.74,5.74,0,0,0,.41-.45,17.76,17.76,0,0,0,4.75-10.86V16.74A17.82,17.82,0,0,0,141.43,5.23l-42.9,42.9L95.79,45.4l14.92-14.92c.14-.14.28-.3.41-.45a17.84,17.84,0,0,0-13-30A17.69,17.69,0,0,0,85.46,5.23L42.55,48.13,30.48,36.06a17.88,17.88,0,0,0-25.25,0A17.83,17.83,0,0,0,5,61.1Zm93.29,1.3a6,6,0,0,0,4.25-1.75l47.14-47.15A5.86,5.86,0,1,1,158.2,22L102.67,77.52a5.84,5.84,0,0,1-8.28,0L79,62.17l8.28-8.28,7,7A6,6,0,0,0,98.52,62.61ZM13.72,44.54a5.87,5.87,0,0,1,8.28,0L38.31,60.86c.15.14.3.28.46.41a6,6,0,0,0,7.57,0c.16-.13.31-.27.46-.41L93.94,13.71A5.86,5.86,0,1,1,102.23,22L46.7,77.53a5.87,5.87,0,0,1-8.28,0l-24.7-24.7h0a5.84,5.84,0,0,1,0-8.28Z"/></g></g></svg>