<svg xmlns="http://www.w3.org/2000/svg" viewBox="0 0 477.87 307.2"><defs><style>.cls-1{fill:#fff;}</style></defs><title>ic_episodes_white</title><g id="Layer_2" data-name="Layer 2"><g id="Capa_1" data-name="Capa 1"><path class="cls-1" d="M469.78,36.68a17.06,17.06,0,0,0-16.61-.75L341.33,91.85V51.2A51.2,51.2,0,0,0,290.13,0H51.2A51.2,51.2,0,0,0,0,51.2V256a51.2,51.2,0,0,0,51.2,51.2H290.13a51.2,51.2,0,0,0,51.2-51.2V215.35l111.84,56A17.07,17.07,0,0,0,477.87,256V51.2A17.06,17.06,0,0,0,469.78,36.68ZM307.2,256a17.07,17.07,0,0,1-17.07,17.07H51.2A17.07,17.07,0,0,1,34.13,256V51.2A17.07,17.07,0,0,1,51.2,34.13H290.13A17.07,17.07,0,0,1,307.2,51.2Zm136.53-27.61-102.4-51.2V130l102.4-51.2Z"/><path class="cls-1" d="M170.67,85.33a68.27,68.27,0,1,0,68.26,68.27A68.27,68.27,0,0,0,170.67,85.33Zm0,102.4A34.13,34.13,0,1,1,204.8,153.6,34.14,34.14,0,0,1,170.67,187.73Z"/></g></g></svg>