<svg xmlns="http://www.w3.org/2000/svg" viewBox="0 0 237.31 143.52"><defs><style>.cls-1{fill:#fff;}</style></defs><title>ic_eye_white</title><g id="Layer_2" data-name="Layer 2"><g id="Layer_1-2" data-name="Layer 1"><path class="cls-1" d="M234.69,64.27C232.59,61.64,182.6,0,118.66,0S4.72,61.64,2.63,64.27a12,12,0,0,0,0,15c2.09,2.63,52.08,64.27,116,64.27s113.93-61.64,116-64.27A12,12,0,0,0,234.69,64.27Zm-116,55.25c-40.42,0-76.19-32.66-90.57-47.76C42.47,56.65,78.25,24,118.66,24s76.18,32.65,90.57,47.76C194.84,86.87,159.06,119.52,118.66,119.52Z"/><path class="cls-1" d="M151.92,71.76A34.36,34.36,0,1,1,117.56,37.4a34.36,34.36,0,0,1,34.36,34.36Z"/></g></g></svg>