<svg xmlns="http://www.w3.org/2000/svg" viewBox="0 0 46.93 25.46"><defs><style>.cls-1{fill:#fff;}</style></defs><title>ic_watched_white</title><g id="Layer_2" data-name="Layer 2"><g id="Layer_1-2" data-name="Layer 1"><path class="cls-1" d="M23.46,0A23.49,23.49,0,0,0,0,23.46a2,2,0,0,0,4,0A19.42,19.42,0,0,1,11.65,8,12.73,12.73,0,1,0,36.2,12.73,12.56,12.56,0,0,0,35.28,8a19.42,19.42,0,0,1,7.65,15.45,2,2,0,0,0,4,0A23.49,23.49,0,0,0,23.46,0Zm-8.2,5.82A19.45,19.45,0,0,1,23.46,4l.71,0,0,0a5.53,5.53,0,1,1-9,6,5.35,5.35,0,0,1-.43-2.12,5.73,5.73,0,0,1,.33-1.86c0-.07,0-.13.07-.19l.13-.06Z"/></g></g></svg>